<?xml version="1.0" encoding="UTF-8" standalone="no"?>
<svg
   width="200"
   height="200"
   viewBox="0 0 200 200"
   fill="none"
   version="1.1"
   id="svg60"
   sodipodi:docname="sifchain.svg"
   inkscape:export-filename="sifchain.jpeg.png"
   inkscape:export-xdpi="96"
   inkscape:export-ydpi="96"
   inkscape:version="1.2.2 (b0a84865, 2022-12-01)"
   xmlns:inkscape="http://www.inkscape.org/namespaces/inkscape"
   xmlns:sodipodi="http://sodipodi.sourceforge.net/DTD/sodipodi-0.dtd"
   xmlns="http://www.w3.org/2000/svg"
   xmlns:svg="http://www.w3.org/2000/svg">
  <sodipodi:namedview
     id="namedview62"
     pagecolor="#ffffff"
     bordercolor="#000000"
     borderopacity="0.25"
     inkscape:showpageshadow="2"
     inkscape:pageopacity="0.0"
     inkscape:pagecheckerboard="0"
     inkscape:deskcolor="#d1d1d1"
     showgrid="false"
     inkscape:zoom="2.7126437"
     inkscape:cx="30.228814"
     inkscape:cy="114.09534"
     inkscape:window-width="1983"
     inkscape:window-height="1257"
     inkscape:window-x="73"
     inkscape:window-y="44"
     inkscape:window-maximized="1"
     inkscape:current-layer="svg60" />
  <g
     id="g229"
     transform="matrix(1.3299752,0,0,1.3299752,4.4237293,42.762712)">
    <path
       d="m 40.8525,16.0177 c 0.438,0 0.9557,-0.1968 1.5131,-0.551 1.1149,-0.7084 1.6723,-1.6529 1.6723,-2.7942 0,-1.6923 -0.9556,-1.9285 -1.5528,-1.9285 -0.5575,0 -1.314,0.1968 -1.752,1.2201 -0.2787,0.669 -0.5176,1.338 -0.6371,2.0071 -0.1194,0.551 -0.2787,0.669 -0.2787,0.669 h -0.5574 l 0.2389,0.6691 c 0.1194,0.2755 0.4379,0.7084 1.3537,0.7084 z"
       fill="url(#paint0_linear)"
       id="path9"
       style="fill:url(#paint0_linear)" />
    <path
       d="m 39.1404,41.3232 c 0.876,0 1.8714,-0.5509 3.0261,-1.7316 1.0751,-1.102 2.0307,-2.322 2.9067,-3.6601 0.7167,-1.1019 1.4732,-2.4006 2.2297,-3.7781 -0.1194,0.6691 -0.199,1.3381 -0.3185,2.0859 l -0.9158,5.8246 c -0.9556,0.7871 -2.1103,2.0071 -3.3446,3.6994 -2.8271,3.7387 -4.7781,7.3988 -5.8134,10.8621 -0.3583,1.2594 -0.5574,2.322 -0.5574,3.1878 0,2.0858 1.0751,3.1878 3.1057,3.1878 2.9465,0 5.3356,-3.2665 7.3662,-9.957 1.2742,-4.0536 2.7873,-11.6492 4.579,-22.59 1.2344,-0.1181 2.4687,-0.4329 3.703,-0.9052 l 0.2389,-0.0787 0.0797,-1.9284 -0.5973,0.2755 c -1.0352,0.4722 -2.0705,0.7477 -3.1456,0.8658 0.4779,-2.8729 0.8362,-5.1556 1.1149,-6.7298 l 0.876,-0.1968 h 0.0398 C 56.4211,18.93 58.7703,16.7261 60.6816,13.1841 62.2344,10.2718 63.0308,7.51689 63.0308,4.95879 63.0308,0.86582 61.0797,0 59.487,0 58.2527,0 57.098,0.550976 56.0229,1.65293 55.0275,2.71553 54.1515,4.05361 53.4348,5.62783 51.6828,9.3666 49.9707,16.1751 48.4178,25.7778 L 47.94,26.7617 h -0.8361 c -0.1593,0 -0.6371,0.0787 -0.6371,0.8658 0,0.7871 0.438,0.8659 0.6371,0.8659 l -0.3186,0.669 c -1.1149,2.2433 -2.4686,4.5259 -4.0215,6.8085 -1.9511,2.8336 -2.9067,3.2665 -3.3447,3.2665 -0.1991,0 -0.7565,0 -0.7565,-1.7316 0,-1.3775 0.1991,-2.9911 0.5574,-4.7621 0.1991,-1.1413 0.3982,-2.0464 0.5575,-2.7548 0.1592,-0.7478 0.3981,-1.7317 0.7167,-2.9123 0.2787,-1.1807 0.5176,-2.0859 0.6371,-2.7156 0.1194,-0.6297 0.1991,-1.2593 0.1991,-1.8497 0,-0.5903 -0.0797,-1.1019 -0.1991,-1.5348 -0.3982,-1.2988 -1.1547,-1.5743 -1.6724,-1.5743 -0.438,0 -1.0352,0.2362 -1.2741,1.3381 -0.1195,0.4329 -0.1991,0.8658 -0.3186,1.3381 -0.0796,0.4329 -0.199,0.8265 -0.2787,1.1413 -0.0796,0.2755 -0.1991,0.7084 -0.3185,1.2988 -1.5131,5.3129 -2.2298,9.2485 -2.2298,11.6492 0,4.2504 2.2298,5.1555 4.1012,5.1555 z M 42.724,54.586 c -0.9955,2.8336 -2.19,4.2898 -3.5438,4.2898 -0.1592,0 -0.7167,0 -0.7167,-1.4562 0,-1.1806 0.876,-3.5813 2.5881,-7.1233 1.4335,-2.991 2.9465,-5.4311 4.4596,-7.2414 -0.876,4.8801 -1.7918,8.7762 -2.7872,11.5311 z M 56.1424,6.02139 c 0.9954,-2.71553 2.1899,-4.09297 3.5039,-4.09297 0.7964,0 1.1945,0.94453 1.1945,2.83359 0,2.08584 -0.7565,4.56523 -2.2297,7.35949 -1.5927,3.0697 -3.4243,4.9981 -5.455,5.6672 0.9556,-5.0769 1.951,-9.05179 2.9863,-11.76731 z"
       fill="url(#paint1_linear)"
       id="path11"
       style="fill:url(#paint1_linear)" />
    <path
       d="m 56.7795,26.7617 c -0.9557,2.2039 -1.4335,4.1323 -1.4335,5.6672 0,1.5349 0.1593,2.8336 0.4778,3.8568 0.9955,3.3059 3.3447,4.9982 7.0079,4.9982 1.314,0 2.7076,-0.5904 4.141,-1.6923 1.3936,-1.102 2.6279,-2.322 3.6234,-3.6601 0.6769,-0.9051 1.3936,-1.9284 2.1103,-3.0697 -0.2787,1.2987 -0.4778,2.322 -0.6371,3.0304 -0.2787,1.2594 -0.3982,2.0858 -0.3982,2.5581 0,0.5116 0.0797,0.9839 0.2788,1.4168 0.4379,1.1019 1.1945,1.3381 1.7121,1.3381 0.5574,0 0.9954,-0.4329 1.2343,-1.2594 0.8362,-2.7155 2.1103,-6.1001 3.7429,-10.075 0.9954,-2.4794 2.0705,-4.5259 3.2252,-6.1001 1.075,-1.4955 2.0705,-2.2826 2.8668,-2.2826 0.2787,0 0.8362,0 0.8362,1.1806 0,1.0233 -0.4778,3.3453 -1.4733,6.966 -0.9954,3.66 -1.4732,6.4543 -1.4732,8.3433 0,4.0536 1.7918,4.9195 3.3048,4.9195 0.4778,0 0.9158,-0.1575 1.314,-0.433 0.3982,-0.3148 0.5973,-0.6296 0.5973,-1.0232 v -0.3936 h -0.3982 c -0.5176,0 -0.7964,-1.0232 -0.7964,-2.8335 0,-1.4168 0.438,-3.9749 1.2742,-7.635 0.876,-3.7388 1.314,-6.1395 1.314,-7.2414 0,-1.1807 -0.3186,-2.1252 -0.9955,-2.8336 -0.6769,-0.7084 -1.5927,-1.0626 -2.7076,-1.0626 -2.827,0 -5.4947,2.6368 -8.2023,8.0285 0.438,-2.4007 0.9158,-4.9981 1.4334,-7.7924 1.3936,-0.7084 2.827,-2.2039 4.3401,-4.6046 2.1501,-3.3845 3.5039,-6.69039 4.0215,-9.87818 C 87.2397,4.52588 87.2795,3.93555 87.2795,3.38457 87.2795,0.590332 85.8461,0 84.6117,0 82.82,0 81.2273,1.49551 79.8735,4.48652 79.1966,5.94267 78.5993,7.47754 78.0817,9.05176 77.5641,10.626 77.0066,12.6331 76.4492,15.1912 c -0.5973,2.6762 -1.1149,4.8801 -1.5131,6.7298 -0.2389,1.1807 -0.5574,2.5581 -0.8759,4.1323 l -0.5177,1.0626 c -0.8361,1.8891 -2.3492,4.3685 -4.4595,7.3595 -0.9556,1.2987 -1.9909,2.4007 -3.1456,3.3058 -1.1148,0.8659 -2.1501,1.3381 -3.1455,1.3381 -2.4687,0 -3.6632,-1.771 -3.6632,-5.3917 0,-2.6368 0.7167,-5.3917 2.0705,-8.1859 1.3538,-2.7155 2.827,-4.093 4.3799,-4.093 0.3982,0 0.7963,0.1181 0.7963,0.9839 0,0.8658 -0.1991,1.7317 -0.637,2.6368 -0.438,0.9446 -0.6769,1.1413 -0.7566,1.1807 H 64.504 l 0.1991,0.5116 c 0.2389,0.7084 0.7167,0.7871 0.9954,0.7871 0.7566,0 1.4335,-0.3148 2.0307,-0.8658 0.5575,-0.551 0.9556,-1.22 1.1149,-1.9284 0.1593,-0.7084 0.2787,-1.4562 0.2787,-2.2433 0,-0.8658 -0.3583,-1.6529 -1.075,-2.3613 -0.5973,-0.551 -1.4335,-0.8658 -2.4687,-0.8658 -0.9556,0 -1.9511,0.2361 -2.9465,0.669 -2.5085,1.22 -4.4595,3.5027 -5.8531,6.8085 z M 84.7312,1.92842 c 0.3982,0.19678 0.5973,0.7084 0.5973,1.53486 0,2.1252 -0.9557,5.0375 -2.8271,8.69752 -1.1148,2.1252 -2.1899,3.6995 -3.1854,4.7227 C 81.8245,4.21103 83.7756,2.04648 84.7312,1.92842 Z"
       fill="url(#paint2_linear)"
       id="path13"
       style="fill:url(#paint2_linear)" />
    <path
       d="m 94.7253,41.2445 c 2.3493,0 5.0967,-2.7942 8.3217,-8.5401 -0.159,1.0626 -0.199,2.0465 -0.199,2.9123 0,3.8175 1.394,5.7459 4.101,5.7459 0.876,0 1.872,-0.551 3.026,-1.7316 1.075,-1.102 2.031,-2.322 2.907,-3.6601 0.557,-0.8658 1.155,-1.8497 1.752,-2.9517 -0.159,1.2594 -0.279,2.322 -0.279,3.1485 0,4.2504 2.23,5.1555 4.101,5.1555 0.876,0 1.872,-0.5509 3.027,-1.7316 1.075,-1.102 2.03,-2.322 2.906,-3.6601 0.637,-0.9838 1.274,-2.0858 1.951,-3.2665 -0.597,3.542 -0.916,5.5492 -0.916,5.9821 0,2.0858 0.996,2.5187 1.792,2.5187 0.438,0 1.036,-0.2361 1.274,-1.4168 0.16,-0.7084 0.717,-2.4794 1.752,-5.2736 0.996,-2.7943 2.35,-5.7853 4.022,-8.855 1.991,-3.6601 3.265,-4.4472 3.982,-4.4472 0.438,0 0.836,0.1575 0.836,1.1807 0,1.0232 -0.518,3.3846 -1.513,7.084 -1.035,3.7781 -1.553,6.6117 -1.553,8.5008 0,4.0536 1.792,4.9194 3.305,4.9194 0.478,0 0.916,-0.1574 1.314,-0.4329 0.398,-0.3149 0.597,-0.6297 0.597,-1.0233 v -0.3935 h -0.398 c -0.518,0 -0.797,-1.0233 -0.797,-2.8336 0,-1.4168 0.438,-4.0143 1.354,-7.6743 0.916,-3.7781 1.354,-6.2182 1.354,-7.3595 0,-1.22 -0.319,-2.2039 -0.956,-2.9123 -0.637,-0.7477 -1.592,-1.1019 -2.747,-1.1019 -2.668,0 -5.336,2.7548 -8.123,8.3827 l 0.359,-1.8497 c 0.119,-0.6691 0.199,-1.2594 0.199,-1.8497 0,-0.5904 -0.08,-1.1414 -0.279,-1.653 -0.438,-1.2987 -1.195,-1.5348 -1.712,-1.5348 -0.398,0 -1.115,0.1967 -1.314,1.3774 -0.279,1.4562 -0.518,2.8336 -0.757,4.1323 l -1.513,3.0698 c -1.115,2.2432 -2.468,4.5258 -4.021,6.8085 -1.951,2.8335 -2.907,3.2665 -3.345,3.2665 -0.199,0 -0.756,0 -0.756,-1.7317 0,-1.3774 0.199,-2.991 0.557,-4.762 0.199,-1.1413 0.398,-2.0465 0.557,-2.7549 0.16,-0.7477 0.399,-1.7316 0.717,-2.9123 0.279,-1.1806 0.518,-2.0858 0.637,-2.7155 0.12,-0.6297 0.199,-1.2594 0.199,-1.8497 0,-0.5904 -0.079,-1.102 -0.199,-1.5349 -0.398,-1.2987 -1.154,-1.5742 -1.672,-1.5742 -0.438,0 -1.035,0.2361 -1.274,1.3381 -0.12,0.4329 -0.199,0.8658 -0.319,1.3381 -0.079,0.4722 -0.199,0.8264 -0.279,1.1413 -0.079,0.2755 -0.199,0.7084 -0.318,1.2987 -0.12,0.4723 -0.239,0.9839 -0.358,1.4168 l -1.633,3.2272 c -1.115,2.2432 -2.469,4.5258 -4.021,6.8085 -1.951,2.8335 -2.907,3.2665 -3.345,3.2665 -0.637,0 -0.757,-1.0626 -0.757,-1.9678 0,-0.3542 0.04,-0.9446 0.12,-1.7317 0.079,-0.8264 0.677,-3.8962 1.792,-9.1304 0.119,-0.5904 0.159,-1.102 0.159,-1.5742 0,-2.0465 -0.916,-2.4794 -1.633,-2.4794 -0.876,0 -1.393,1.1413 -1.672,2.0071 -0.398,1.1413 -1.712,3.7388 -3.942,7.7137 -1.035,1.889 -2.15,3.5419 -3.3445,4.9587 -1.4335,1.653 -2.3094,2.0072 -2.7873,2.0072 -0.7167,0 -0.8759,-1.3381 -0.8759,-2.4794 0,-3.0304 0.7963,-6.2969 2.389,-9.6815 1.6325,-3.5813 3.4243,-5.3523 5.3357,-5.3523 0.517,0 0.876,0.0787 1.115,0.2755 0.318,0.2361 0.318,0.4329 0.318,0.5116 0,0.5116 0.319,0.8265 0.836,0.8658 0.279,0 0.478,-0.0393 0.677,-0.1968 0.12,-0.118 0.239,-0.2754 0.239,-0.5903 0,-0.7477 -0.318,-1.4561 -0.916,-2.0465 -0.597,-0.5903 -1.433,-0.9051 -2.468,-0.9051 -0.956,0 -1.9513,0.1967 -2.9069,0.5903 -2.6678,1.1413 -4.8577,3.66 -6.5699,7.3988 -1.2343,2.7549 -1.8316,5.313 -1.8316,7.635 0.0797,4.0142 1.5529,6.1394 4.4197,6.1394 z"
       fill="url(#paint3_linear)"
       id="path15"
       style="fill:url(#paint3_linear)" />
    <path
       d="m 120.208,16.0177 c 0.438,0 0.956,-0.1968 1.513,-0.551 1.115,-0.7084 1.673,-1.6529 1.673,-2.7942 0,-1.6923 -0.956,-1.9285 -1.553,-1.9285 -0.558,0 -1.314,0.1968 -1.752,1.2201 -0.279,0.669 -0.518,1.338 -0.637,2.0071 -0.12,0.551 -0.279,0.669 -0.279,0.669 h -0.517 l 0.238,0.6691 c 0.08,0.2755 0.399,0.7084 1.314,0.7084 z"
       fill="url(#paint4_linear)"
       id="path17"
       style="fill:url(#paint4_linear)" />
    <path
       d="M 36.3532,74.4999 C 31.3362,71.4302 25.0849,72.4534 19.6299,70.9185 13.6573,69.2656 8.99871,65.0152 5.01698,60.4893 c -0.03982,-0.0393 -0.11945,0 -0.07964,0.0788 3.78265,5.4704 9.27746,10.0356 15.92696,11.4524 3.6632,0.7871 7.4856,0.669 11.109,1.6529 1.9909,0.5116 3.9817,1.3775 5.455,2.7943 0.2787,0.2755 0.9158,0.8264 0.9556,1.2987 0.0398,0.8265 -0.9158,1.6529 -1.6724,1.6923 -0.637,0.0393 -1.513,-0.3542 -1.6723,-0.9839 -0.1592,-0.6691 0.8362,-1.4168 1.4334,-0.9839 0.3186,0.2361 0.6371,-0.2755 0.3982,-0.551 -1.9112,-1.889 -4.5392,2.4401 -1.0751,3.3846 1.3937,0.3936 3.3049,-0.3148 3.6234,-1.8891 0.2787,-1.6922 -1.7918,-3.1484 -3.0659,-3.9355 z"
       fill="url(#paint5_linear)"
       id="path19"
       style="fill:url(#paint5_linear)" />
    <path
       d="m 141.033,55.3731 c -1.712,-1.5348 -4.858,-1.4955 -5.694,0.9839 -0.717,2.0859 1.433,4.2504 3.384,3.3059 0.598,-0.2755 0.2,-1.22 -0.438,-0.9839 -1.473,0.551 -2.428,-1.771 -1.314,-2.6762 0.757,-0.6297 1.792,-0.6297 2.628,-0.1574 1.314,0.7478 2.429,2.6368 2.151,4.211 -0.518,2.7943 -5.296,4.2504 -7.566,4.8014 -5.335,1.3381 -11.069,0.551 -16.365,-0.9839 -10.352,-2.991 -20.0277,-8.1859 -31.0571,-6.9659 -2.7872,0.3148 -5.9328,0.9445 -8.8793,2.0071 -0.9158,0.1968 -1.9112,0.4723 -2.9066,0.7871 -1.3538,0.4329 -2.7872,0.9446 -4.2207,1.5349 -1.4732,0.5903 -2.9464,1.2594 -4.4595,1.9678 -3.0261,1.3774 -6.1717,2.8729 -9.3571,4.211 -3.1854,1.2987 -6.4106,2.44 -9.5163,3.1091 -1.5131,0.3148 -2.9863,0.551 -4.3799,0.7084 -0.7167,-0.0394 -1.3936,-0.1181 -2.1103,-0.1181 -0.5973,-0.0393 -1.1547,-0.0393 -1.752,-0.0787 -1.0352,-0.3542 -2.1501,-0.669 -3.3048,-0.9839 -1.3936,-0.3542 -2.827,-0.7084 -4.3003,-1.0232 -2.9465,-0.6691 -6.0522,-1.2987 -9.0783,-2.1252 -3.0261,-0.7871 -5.9726,-1.771 -8.5607,-2.991 -1.3937,-0.6297 -2.6678,-1.3381 -3.8225,-2.0859 0.0398,-0.0393 0.0796,-0.0393 0.1194,-0.0787 2.4687,1.1413 5.2161,1.771 7.9237,1.771 3.3048,0 6.4902,-0.9445 9.7552,-1.3381 1.7918,-0.1967 4.579,-0.6297 5.9726,0.7478 1.1547,1.1413 0.3186,2.5581 -1.075,2.9516 -0.5177,0.1181 -0.9955,0.1575 -1.5529,0.0394 -0.5973,0 -1.0353,-0.3148 -1.2344,-0.9445 0.3584,-0.3149 0.7566,-0.6297 1.1149,-0.9446 0.5176,0.1968 0.876,-0.4722 0.438,-0.7477 -1.1547,-0.7084 -2.5881,0.0787 -2.5881,1.4561 0,1.6136 1.6723,2.4007 3.1057,2.3614 1.5529,-0.0394 3.4243,-0.8265 3.5438,-2.5975 0.1194,-1.6529 -1.2742,-2.9123 -2.7872,-3.3059 -2.19,-0.5903 -4.7383,-0.118 -6.9282,0.3149 -2.7474,0.5116 -5.4948,1.1807 -8.3219,1.1413 -0.637,0 -1.2343,-0.0787 -1.8316,-0.1181 1.4335,-0.118 2.8669,-0.4329 3.8623,-1.1413 3.0261,0.2755 6.3708,-0.2755 8.2422,-2.8729 0.1593,-0.2362 -0.0398,-0.5116 -0.2389,-0.551 -2.1103,-0.6297 -4.4595,-0.3148 -6.2911,0.9839 -0.6769,0.4723 -1.1547,1.0626 -1.7122,1.5742 -0.1592,0 -0.3185,0 -0.4778,0.0394 -0.3185,0 -0.438,0.3935 -0.3185,0.5903 -0.2787,0.1574 -0.5575,0.3148 -0.9158,0.4329 -1.1945,0.3542 -2.4687,0.551 -3.703,0.669 -1.314,-0.2754 -2.5483,-0.7084 -3.7429,-1.2593 0,-0.1181 -0.0398,-0.2362 -0.0796,-0.3149 1.4334,0.0787 2.9465,-0.2361 4.3003,-0.5903 2.7872,-0.6691 5.3355,-2.0465 6.6097,-4.6833 0.1194,-0.1968 0.0796,-0.551 -0.1991,-0.669 -2.5483,-1.0233 -5.3356,-1.2988 -8.0033,-0.551 -1.2343,0.3542 -2.628,0.8658 -3.54375,1.771 -0.39817,0.3935 -0.55744,0.7871 -0.83616,1.22 C 8.00328,58.2461 7.08748,58.5216 6.17168,58.2854 5.49479,57.7345 4.89753,57.1835 4.26045,56.5538 3.14557,54.6254 2.54831,52.5002 2.54831,50.1782 c 0,-2.2826 0.2389,-4.4078 0.67689,-6.2575 2.26959,2.5975 5.49479,3.8962 9.596,3.8962 3.0659,0 5.7735,-0.551 8.0829,-1.6136 2.3094,-1.1019 4.1808,-2.5974 5.5346,-4.5259 1.314,-1.9284 2.3094,-4.0536 2.9465,-6.3756 0.637,-2.3219 0.9556,-4.762 0.9556,-7.2414 0,-2.44 -0.5176,-7.0839 -1.5131,-13.8137 1.9909,-1.8497 3.5039,-3.5814 4.5392,-5.11623 C 34.442,7.47754 34.9994,5.82461 34.9596,4.13232 34.88,2.95166 34.5216,2.00713 33.9243,1.22002 33.2873,0.43291 32.3715,0.0393555 31.2566,0.0393555 27.1952,0 25.0849,3.81748 25.0849,11.4131 c 0,1.0626 0.0796,2.1645 0.1991,3.2665 l -6.1717,5.0768 c -1.4732,-1.2593 -3.4243,-1.889 -5.7735,-1.889 -1.752,0 -3.46411,0.3935 -5.01699,1.1413 -1.55287,0.7477 -2.90666,1.8103 -3.98172,3.0697 -1.07507,1.2594 -2.0705,2.9517 -2.9863,4.9982 C 0.43799,29.1624 0,31.5237 0,34.1605 c 0,2.7549 0.557442,5.195 1.63251,7.2808 -0.836164,2.4794 -1.274154,5.2736 -1.274154,8.2253 0,3.0697 0.875984,5.9033 2.627944,8.4221 0.59726,0.9051 1.31397,1.6135 2.03068,2.2039 2.54831,3.3452 6.60962,6.0607 10.15342,7.8711 6.2513,3.1484 12.9804,3.542 19.7494,3.7781 0.1592,0.0393 0.3185,0.0787 0.4778,0.1181 1.3139,0.3935 2.5483,0.7871 3.703,1.22 2.2696,0.8658 4.0613,1.889 5.2559,2.7549 0.3185,0.1967 0.5574,0.4329 0.8361,0.6296 0.2389,0.1968 0.438,0.3542 0.6371,0.5117 0.1593,0.1574 0.3185,0.2755 0.438,0.3935 0.1194,0.1181 0.1991,0.1968 0.2389,0.2755 0.876,0.9052 1.6325,1.771 2.2298,2.44 0.0796,0.0788 0.1592,0.1575 0.2389,0.2362 0.0398,0.0393 0.0796,0.0787 0.1194,0.0787 0.0398,0 0.0398,0 0.0797,0.0393 h 0.0796 c -0.0398,0.0787 -0.0398,0.1968 -0.0398,0.2755 0,0.0787 0.0398,0.1181 0.0796,0.1968 0.0398,0.0787 0.1991,0.1968 0.438,0.1574 0.1195,0 0.1991,-0.0393 0.2389,-0.0787 0.0398,-0.0393 0.0796,-0.0393 0.1593,-0.0787 0.0796,-0.0787 0.1592,-0.1968 0.1991,-0.3148 0.0796,-0.2362 0.0796,-0.3936 0.0796,-0.551 0,-0.0787 -0.0398,-0.1574 -0.0398,-0.2361 0,-0.0394 -0.0398,-0.1181 -0.0398,-0.1575 -0.0399,-0.118 -0.0399,-0.2361 -0.0797,-0.3542 -0.2389,-0.9839 -0.9556,-2.2039 -1.9908,-3.2665 -0.0797,-0.0787 -0.1593,-0.1574 -0.2788,-0.3148 -0.1194,-0.1181 -0.3185,-0.2755 -0.5176,-0.4723 -0.1991,-0.1968 -0.438,-0.3935 -0.7167,-0.5903 -0.0796,-0.0787 -0.1593,-0.1181 -0.2389,-0.1968 1.8316,0.1574 3.6234,0.1181 5.455,-0.0787 0.9158,0.5903 1.9112,1.2594 2.5881,2.0858 0.3185,0.2755 0.5176,0.6297 0.6371,1.0626 -0.3186,0.551 -0.6371,1.1413 -0.9955,1.6923 -0.9158,-0.5903 -1.1547,-1.1413 -0.7565,-1.7316 0.0796,-0.1574 0.1593,-0.2755 0.2787,-0.4329 0.1593,-0.2362 -0.1194,-0.5117 -0.3583,-0.4329 -1.3936,0.3935 -1.5131,2.4006 -0.3982,3.2271 1.314,0.9839 3.0659,0.0394 3.265,-1.4955 0.2389,-1.8497 -1.4732,-3.1878 -2.9863,-4.1323 1.6325,0.6297 3.1854,1.4168 4.6586,2.4007 1.752,1.1806 5.3754,3.8961 4.9374,6.3755 -0.2389,1.3775 -1.752,2.5975 -3.1058,2.7549 -0.8361,0.1181 -1.7519,-0.1967 -2.1899,-0.9839 -0.6371,-1.1019 0.8362,-2.6761 1.951,-1.771 0.438,0.3936 1.0751,-0.2361 0.6769,-0.669 -1.3538,-1.3774 -3.8622,-0.3148 -3.8622,1.6136 -0.0399,2.322 2.6279,3.3452 4.5391,2.6368 1.8714,-0.7084 3.5836,-2.7942 3.066,-4.8407 -0.5973,-2.3614 -3.1058,-4.4866 -4.9772,-5.8246 -1.1945,-0.8265 -2.4289,-1.5349 -3.7428,-2.1252 0.9556,-0.2362 1.8714,-0.5117 2.7872,-0.8658 3.8623,-1.4956 7.2865,-3.8962 11.2285,-5.195 2.1501,-0.7084 4.4993,-1.1413 6.7291,-0.7084 0.438,0.0787 1.3538,0.1968 1.6723,0.5904 0.5574,0.7477 0.1991,2.0464 -0.5176,2.5581 -0.5575,0.4329 -1.5927,0.5903 -2.1502,0.0787 -0.5574,-0.5116 -0.0796,-1.771 0.7168,-1.771 0.438,0 0.438,-0.6691 0.0398,-0.7478 -2.9465,-0.5903 -2.6678,4.9982 1.075,3.7782 1.5131,-0.4723 2.8669,-2.2827 2.1502,-3.8962 -0.7566,-1.8497 -3.5836,-1.9284 -5.2559,-1.8497 -6.4902,0.1967 -11.6267,4.88 -17.5992,6.8084 -0.7566,0.2362 -1.5131,0.433 -2.3095,0.5904 -1.7519,-0.6691 -3.6233,-1.1807 -5.4947,-1.5349 3.1455,-0.551 6.3707,-1.5742 9.5163,-2.7549 3.3048,-1.22 6.4902,-2.6368 9.5561,-3.9355 1.314,-0.551 2.5882,-1.0626 3.7827,-1.5742 -0.1195,0.0787 -0.1991,0.1574 -0.1991,0.1967 0.0398,0.0394 0.2389,10e-5 0.5973,-0.1574 0.2389,-0.0787 0.4778,-0.1574 0.6769,-0.2755 0.3185,-0.118 0.637,-0.1967 0.9556,-0.3148 1.3936,-0.4723 3.4641,-1.0232 5.9726,-1.2594 2.5085,-0.2361 5.4549,-0.118 8.6005,0.4329 3.1057,0.551 6.4106,1.5349 9.6358,2.7549 3.2247,1.22 6.4507,2.6368 9.5167,3.9356 1.552,0.669 3.026,1.2593 4.539,1.8497 1.473,0.5509 2.906,1.0232 4.3,1.4168 2.747,0.7477 5.216,1.0626 7.127,1.0626 0.478,0 0.916,-0.0394 1.314,-0.0394 0.398,0 0.757,-0.0787 1.036,-0.1181 0.318,-0.0393 0.557,-0.0787 0.756,-0.118 0.199,-0.0394 0.358,-0.0787 0.478,-0.1181 1.632,-0.3542 3.066,-1.1019 3.902,-1.8497 0.119,-0.0787 0.199,-0.1968 0.319,-0.2755 0.039,-0.0393 0.079,-0.0787 0.159,-0.1181 0.079,-0.0787 0.119,-0.118 0.199,-0.1967 0.119,-0.1575 0.239,-0.3149 0.318,-0.5904 0.04,-0.118 0.04,-0.3148 0,-0.4329 0,-0.0787 -0.039,-0.118 -0.079,-0.1968 -0.04,-0.0787 -0.08,-0.1574 -0.199,-0.2361 -0.16,-0.1574 -0.398,-0.1574 -0.478,-0.118 -0.12,0.0393 -0.159,0.0787 -0.199,0.1574 -0.08,0.0787 -0.12,0.1967 -0.159,0.3148 l -0.08,-0.0787 c -0.04,0 -0.04,0 -0.08,0 -0.04,0 -0.119,0 -0.159,0.0394 -0.119,0.0393 -0.239,0.0393 -0.358,0.0787 -0.956,0.2755 -2.19,0.5903 -3.584,0.9051 -0.08,0.0394 -0.199,0.0394 -0.398,0.0788 -0.159,0.0393 -0.398,0.0787 -0.637,0.118 -0.239,0.0394 -0.558,0.0787 -0.916,0.1181 -0.358,0.0393 -0.717,0.0787 -1.155,0.0787 -1.672,0.0394 -3.942,-0.1574 -6.53,-0.8265 -1.314,-0.3148 -2.667,-0.7477 -4.101,-1.22 -1.433,-0.5116 -2.946,-1.0626 -4.499,-1.6923 -3.106,-1.22 -6.371,-2.5187 -9.7156,-3.66 -2.4289,-0.8265 -4.8577,-1.4955 -7.2468,-2.0072 0,-0.0393 0,-0.0393 0,-0.0787 -0.0796,-0.2361 -0.1991,-0.3935 -0.3185,-0.5509 -0.0797,-0.0788 -0.1195,-0.1181 -0.1991,-0.1968 -0.0398,-0.0394 -0.0796,-0.0787 -0.1593,-0.1181 -0.0796,-0.0787 -0.1991,-0.1574 -0.3185,-0.2361 -0.876,-0.6691 -2.3094,-1.2987 -3.9818,-1.5349 -0.1194,0 -0.2787,-0.0393 -0.4778,-0.0787 -0.199,-0.0394 -0.4778,-0.0393 -0.7565,-0.0787 -0.1991,0 -0.4778,-0.0394 -0.7167,-0.0394 3.0659,-0.5903 6.2115,-0.7871 9.3173,-0.5116 7.5653,0.6297 14.5333,3.9749 21.6603,6.3362 6.49,2.1646 13.578,3.6208 20.267,1.8104 2.469,-0.669 5.893,-1.9284 7.406,-4.211 1.195,-1.8891 0.239,-4.8408 -1.433,-6.3363 z M 21.0633,59.9384 c 0.6371,-0.551 1.3937,-0.9839 2.19,-1.2594 1.1945,-0.4329 2.4289,-0.4329 3.6632,-0.1574 -1.7122,1.8103 -4.0216,1.889 -6.3708,1.9677 0.1593,-0.1967 0.3186,-0.3935 0.5176,-0.5509 z M 31.3362,2.1252 c 0.6371,0 1.5131,0.23613 1.5131,2.16455 0,1.96777 -1.4335,4.40781 -4.2605,7.28075 -0.1194,-1.1019 -0.1593,-2.00712 -0.1593,-2.71552 0,-4.44717 0.9557,-6.72978 2.9067,-6.72978 z M 49.4929,80.6 c 0,0.0393 0,0.0393 0,0 z M 20.2272,55.4125 c -1.1149,1.9284 -3.0659,2.9517 -5.2161,3.542 -1.8714,0.4723 -4.4197,1.1019 -6.2513,0.1968 2.7872,-1.1807 5.6142,-2.0072 8.5209,-2.9123 0.4778,-0.1575 0.2787,-0.7871 -0.1991,-0.7084 -2.5483,0.4329 -5.0966,1.2987 -7.56527,2.2432 1.99087,-3.5026 7.16707,-3.66 10.71087,-2.3613 z M 18.8336,25.0694 c 0,2.2039 -0.8362,4.2111 -2.5085,5.9821 -1.1149,1.22 -2.3492,1.8497 -3.6632,1.8497 h -0.4778 l 0.0796,0.4722 c 0.0797,0.4329 0.2389,0.7871 0.5177,1.0233 0.2389,0.2361 0.5972,0.3542 1.0352,0.3542 1.6723,0 3.1854,-0.5116 4.4994,-1.4955 1.2741,-0.9839 2.1899,-2.1252 2.6677,-3.424 0.5176,-1.2593 0.7565,-2.7548 0.7565,-4.3684 0,-1.5349 -0.4379,-2.9123 -1.2741,-4.1717 l 5.017,-4.1323 c 0.5574,5.7459 0.8361,9.2092 0.8361,10.3898 0,4.8801 -1.0352,9.1305 -3.1057,12.5544 -1.0353,1.7317 -2.4687,3.1091 -4.3003,4.093 -1.8316,0.9839 -3.9817,1.4955 -6.4106,1.4955 -3.90206,0 -6.68928,-1.3774 -8.52087,-4.211 1.19452,-3.424 3.02611,-6.6511 5.5346,-9.6028 2.42887,-2.8729 5.45497,-5.8639 8.99867,-8.8943 0.2389,0.669 0.3186,1.3774 0.3186,2.0858 z M 2.86685,29.3592 c 1.19451,-3.7781 3.14556,-6.533 5.81332,-8.1073 1.43343,-0.8658 3.06593,-1.2987 4.85773,-1.2987 1.5927,0 2.8668,0.4329 3.8224,1.2594 C 10.0738,27.3914 5.13643,33.216 2.70758,38.6471 2.3094,37.309 2.11032,35.8922 2.11032,34.3573 c 0,-1.7316 0.2389,-3.3846 0.75653,-4.9981 z m 8.56075,35.656 C 9.95432,63.992 8.68017,62.8113 7.44583,61.5913 c 0.23891,0.0787 0.47781,0.1181 0.71672,0.1968 1.47324,1.1806 3.26505,2.3219 5.21605,3.3452 2.628,1.3774 5.6541,2.4794 8.6802,3.3846 2.9465,0.8658 5.8929,1.6135 8.72,2.3219 -3.4243,-0.1574 -6.8088,-0.5116 -10.1136,-1.4561 -3.265,-0.9446 -6.4106,-2.4401 -9.2376,-4.3685 z m 33.765,8.7763 c -0.6769,-0.4329 -1.4732,-0.8658 -2.3492,-1.2987 0.4778,0 0.9954,-0.0394 1.4733,-0.0787 0.5176,0.0393 0.9954,0.118 1.513,0.1967 0,0.0787 0.0796,0.1181 0.1593,0.1181 0.4778,0 0.9556,0.0393 1.4334,0.1181 0.3584,0.0787 0.7167,0.118 1.0751,0.1967 0.7565,0.1968 1.4732,0.433 2.1501,0.7871 -1.8316,0.1575 -3.6632,0.1181 -5.455,-0.0393 z"
       fill="url(#paint6_linear)"
       id="path21"
       style="fill:url(#paint6_linear)" />
  </g>
  <defs
     id="defs58">
    <linearGradient
       id="paint0_linear"
       x1="71.5"
       y1="0"
       x2="71.5"
       y2="87"
       gradientUnits="userSpaceOnUse">
      <stop
         stop-color="#D4B553"
         id="stop23" />
      <stop
         offset="1"
         stop-color="#C1A04F"
         id="stop25" />
    </linearGradient>
    <linearGradient
       id="paint1_linear"
       x1="71.5"
       y1="0"
       x2="71.5"
       y2="87"
       gradientUnits="userSpaceOnUse">
      <stop
         stop-color="#D4B553"
         id="stop28" />
      <stop
         offset="1"
         stop-color="#C1A04F"
         id="stop30" />
    </linearGradient>
    <linearGradient
       id="paint2_linear"
       x1="71.5"
       y1="0"
       x2="71.5"
       y2="87"
       gradientUnits="userSpaceOnUse">
      <stop
         stop-color="#D4B553"
         id="stop33" />
      <stop
         offset="1"
         stop-color="#C1A04F"
         id="stop35" />
    </linearGradient>
    <linearGradient
       id="paint3_linear"
       x1="71.5"
       y1="0"
       x2="71.5"
       y2="87"
       gradientUnits="userSpaceOnUse">
      <stop
         stop-color="#D4B553"
         id="stop38" />
      <stop
         offset="1"
         stop-color="#C1A04F"
         id="stop40" />
    </linearGradient>
    <linearGradient
       id="paint4_linear"
       x1="71.5"
       y1="0"
       x2="71.5"
       y2="87"
       gradientUnits="userSpaceOnUse">
      <stop
         stop-color="#D4B553"
         id="stop43" />
      <stop
         offset="1"
         stop-color="#C1A04F"
         id="stop45" />
    </linearGradient>
    <linearGradient
       id="paint5_linear"
       x1="71.5"
       y1="0"
       x2="71.5"
       y2="87"
       gradientUnits="userSpaceOnUse">
      <stop
         stop-color="#D4B553"
         id="stop48" />
      <stop
         offset="1"
         stop-color="#C1A04F"
         id="stop50" />
    </linearGradient>
    <linearGradient
       id="paint6_linear"
       x1="71.5"
       y1="0"
       x2="71.5"
       y2="87"
       gradientUnits="userSpaceOnUse">
      <stop
         stop-color="#D4B553"
         id="stop53" />
      <stop
         offset="1"
         stop-color="#C1A04F"
         id="stop55" />
    </linearGradient>
  </defs>
</svg>
